<svg id="Layer_1" data-name="Layer 1" xmlns="http://www.w3.org/2000/svg" viewBox="0 0 110.63 90.91"><defs><style>.cls-1{fill:#f7901e;}.cls-2{fill:#184273;}</style></defs><path class="cls-1" d="M110.62,60.5a29.2,29.2,0,0,1-1.89,11.31c-4.38,11.65-15.85,19.1-28.29,19.1H36a1,1,0,0,1-.69-1.68L83.46,41a5,5,0,0,0,0-7l-9.76-9.87a5,5,0,0,0-7-.07L38.43,51.61a6.19,6.19,0,0,1-8.79-.21,31,31,0,0,1-8.41-26.29,29.66,29.66,0,0,1,4.9-12.06A30.9,30.9,0,0,1,52.06,0l55.43.77a1.81,1.81,0,0,1,1.26,3.08L84.08,28.72a1.59,1.59,0,0,0,.82,2.69C99.36,34.05,110.16,46.34,110.62,60.5Z"/><path class="cls-2" d="M78.53,40.32,38.28,80.57a10.86,10.86,0,0,1-15.21.15L0,58.54H0a15.67,15.67,0,0,1,22.21-.74l5.59,5.25a3.37,3.37,0,0,0,4.68,0L67.34,29a4,4,0,0,1,5.63.05l5.57,5.63A4,4,0,0,1,78.53,40.32Z"/></svg>