<svg id="Layer_1" data-name="Layer 1" xmlns="http://www.w3.org/2000/svg" viewBox="0 0 344.86 99.61"><defs><style>.cls-1{fill:#f7901e;}.cls-2{fill:#184273;}</style></defs><path class="cls-1" d="M110.62,60.5a29.2,29.2,0,0,1-1.89,11.31c-4.38,11.65-15.85,19.1-28.29,19.1H36a1,1,0,0,1-.69-1.68L83.46,41a5,5,0,0,0,0-7l-9.76-9.87a5,5,0,0,0-7-.07L38.43,51.61a6.19,6.19,0,0,1-8.79-.21,31,31,0,0,1-8.41-26.29,29.66,29.66,0,0,1,4.9-12.06A30.9,30.9,0,0,1,52.06,0l55.43.77a1.81,1.81,0,0,1,1.26,3.08L84.08,28.72a1.59,1.59,0,0,0,.82,2.69C99.36,34.05,110.16,46.34,110.62,60.5Z"/><path class="cls-2" d="M78.53,40.32,38.28,80.57a10.86,10.86,0,0,1-15.21.15L0,58.54H0a15.67,15.67,0,0,1,22.21-.74l5.59,5.25a3.37,3.37,0,0,0,4.68,0L67.34,29a4,4,0,0,1,5.63.05l5.57,5.63A4,4,0,0,1,78.53,40.32Z"/><path class="cls-2" d="M153.18,78.87c0,4.21.09,7.91.34,11.11H147l-.42-6.65h-.17a15.31,15.31,0,0,1-13.46,7.58c-6.39,0-14.05-3.54-14.05-17.84V49.25h7.4V71.8c0,7.75,2.36,13,9.09,13A10.69,10.69,0,0,0,145.1,78a10.83,10.83,0,0,0,.68-3.79v-25h7.4Z"/><path class="cls-2" d="M165.46,62c0-4.8-.08-8.92-.33-12.71h6.48l.25,8h.34c1.85-5.47,6.31-8.92,11.27-8.92a8,8,0,0,1,2.11.25v7a11.7,11.7,0,0,0-2.53-.25c-5.22,0-8.92,4-9.93,9.51a20.67,20.67,0,0,0-.34,3.45V90h-7.32Z"/><path class="cls-2" d="M197.94,49.25l8,22.89a105.54,105.54,0,0,1,3.28,10.44h.25c.93-3.37,2.1-6.74,3.45-10.44l7.91-22.89h7.74L212.58,90h-7.06L190,49.25Z"/><path class="cls-2" d="M238.84,71c.16,10,6.56,14.14,14,14.14A26.92,26.92,0,0,0,264.08,83l1.26,5.3a33,33,0,0,1-13.55,2.52c-12.53,0-20-8.24-20-20.53s7.23-22,19.1-22c13.29,0,16.83,11.69,16.83,19.18a28.67,28.67,0,0,1-.25,3.45Zm21.71-5.3c.08-4.71-1.94-12-10.27-12-7.49,0-10.77,6.9-11.36,12Z"/><path class="cls-2" d="M280.06,49.25,285.87,58c1.52,2.28,2.78,4.38,4.12,6.65h.26c1.34-2.44,2.69-4.54,4-6.73L300,49.25h8L294.12,68.94l14.3,21H300l-6-9.17c-1.6-2.36-2.94-4.63-4.37-7.07h-.17c-1.35,2.44-2.78,4.63-4.29,7.07L279.31,90h-8.16L285.62,69.2l-13.8-20Z"/><path class="cls-2" d="M338.13,90l-.59-5.13h-.26a15.15,15.15,0,0,1-12.45,6.06c-8.25,0-12.45-5.81-12.45-11.7,0-9.85,8.75-15.23,24.48-15.15v-.84c0-3.36-.92-9.42-9.25-9.42a20.25,20.25,0,0,0-10.61,3L315.32,52a25.28,25.28,0,0,1,13.38-3.62c12.46,0,15.48,8.5,15.48,16.66V80.22a56.82,56.82,0,0,0,.68,9.76ZM337,69.2c-8.08-.17-17.25,1.26-17.25,9.17,0,4.79,3.2,7.07,7,7.07a10.13,10.13,0,0,0,9.84-6.82,7.83,7.83,0,0,0,.42-2.36Z"/></svg>